G04 ================== begin FILE IDENTIFICATION RECORD ==================*
G04 Layout Name:  E:/Proiect 1/allegro/AMPLFIC AUDIO PUTERE.brd*
G04 Film Name:    FAB*
G04 File Format:  Gerber RS274X*
G04 File Origin:  Cadence Allegro 16.6-2015-S059*
G04 Origin Date:  Tue Nov 13 20:28:54 2018*
G04 *
G04 Layer:  MANUFACTURING/NCDRILL_FIGURE*
G04 Layer:  MANUFACTURING/XSECTION_CHART*
G04 Layer:  MANUFACTURING/NCLEGEND-1-2*
G04 Layer:  BOARD GEOMETRY/OUTLINE*
G04 Layer:  BOARD GEOMETRY/DIMENSION*
G04 *
G04 Offset:    (0.00 0.00)*
G04 Mirror:    No*
G04 Mode:      Positive*
G04 Rotation:  0*
G04 FullContactRelief:  No*
G04 UndefLineWidth:     10.00*
G04 ================== end FILE IDENTIFICATION RECORD ====================*
%FSLAX25Y25*MOIN*%
%IR0*IPPOS*OFA0.00000B0.00000*MIA0B0*SFA1.00000B1.00000*%
%AMMACRO10*
1,1,.01,.025,0.0*
20,1,.01,.025,0.0,.02462,-.004341,0.0*
1,1,.01,.02462,-.004341*
20,1,.01,.02462,-.004341,.023492,-.008551,0.0*
1,1,.01,.023492,-.008551*
20,1,.01,.023492,-.008551,.021651,-.0125,0.0*
1,1,.01,.021651,-.0125*
20,1,.01,.021651,-.0125,.019151,-.01607,0.0*
1,1,.01,.019151,-.01607*
20,1,.01,.019151,-.01607,.01607,-.019151,0.0*
1,1,.01,.01607,-.019151*
20,1,.01,.01607,-.019151,.0125,-.021651,0.0*
1,1,.01,.0125,-.021651*
20,1,.01,.0125,-.021651,.008551,-.023492,0.0*
1,1,.01,.008551,-.023492*
20,1,.01,.008551,-.023492,.004341,-.02462,0.0*
1,1,.01,.004341,-.02462*
20,1,.01,.004341,-.02462,0.0,-.025,0.0*
1,1,.01,0.0,-.025*
20,1,.01,0.0,-.025,-.004341,-.02462,0.0*
1,1,.01,-.004341,-.02462*
20,1,.01,-.004341,-.02462,-.008551,-.023492,0.0*
1,1,.01,-.008551,-.023492*
20,1,.01,-.008551,-.023492,-.0125,-.021651,0.0*
1,1,.01,-.0125,-.021651*
20,1,.01,-.0125,-.021651,-.01607,-.019151,0.0*
1,1,.01,-.01607,-.019151*
20,1,.01,-.01607,-.019151,-.019151,-.01607,0.0*
1,1,.01,-.019151,-.01607*
20,1,.01,-.019151,-.01607,-.021651,-.0125,0.0*
1,1,.01,-.021651,-.0125*
20,1,.01,-.021651,-.0125,-.023492,-.008551,0.0*
1,1,.01,-.023492,-.008551*
20,1,.01,-.023492,-.008551,-.02462,-.004341,0.0*
1,1,.01,-.02462,-.004341*
20,1,.01,-.02462,-.004341,-.025,0.0,0.0*
1,1,.01,-.025,0.0*
20,1,.01,-.025,0.0,-.02462,.004341,0.0*
1,1,.01,-.02462,.004341*
20,1,.01,-.02462,.004341,-.023492,.008551,0.0*
1,1,.01,-.023492,.008551*
20,1,.01,-.023492,.008551,-.021651,.0125,0.0*
1,1,.01,-.021651,.0125*
20,1,.01,-.021651,.0125,-.019151,.01607,0.0*
1,1,.01,-.019151,.01607*
20,1,.01,-.019151,.01607,-.01607,.019151,0.0*
1,1,.01,-.01607,.019151*
20,1,.01,-.01607,.019151,-.0125,.021651,0.0*
1,1,.01,-.0125,.021651*
20,1,.01,-.0125,.021651,-.008551,.023492,0.0*
1,1,.01,-.008551,.023492*
20,1,.01,-.008551,.023492,-.004341,.02462,0.0*
1,1,.01,-.004341,.02462*
20,1,.01,-.004341,.02462,0.0,.025,0.0*
1,1,.01,0.0,.025*
20,1,.01,0.0,.025,.004341,.02462,0.0*
1,1,.01,.004341,.02462*
20,1,.01,.004341,.02462,.008551,.023492,0.0*
1,1,.01,.008551,.023492*
20,1,.01,.008551,.023492,.0125,.021651,0.0*
1,1,.01,.0125,.021651*
20,1,.01,.0125,.021651,.01607,.019151,0.0*
1,1,.01,.01607,.019151*
20,1,.01,.01607,.019151,.019151,.01607,0.0*
1,1,.01,.019151,.01607*
20,1,.01,.019151,.01607,.021651,.0125,0.0*
1,1,.01,.021651,.0125*
20,1,.01,.021651,.0125,.023492,.008551,0.0*
1,1,.01,.023492,.008551*
20,1,.01,.023492,.008551,.02462,.004341,0.0*
1,1,.01,.02462,.004341*
20,1,.01,.02462,.004341,.025,0.0,0.0*
1,1,.01,.025,0.0*
1,1,.01,.0125,0.0*
20,1,.01,.0125,0.0,-.0125,0.0,0.0*
1,1,.01,-.0125,0.0*
1,1,.01,0.0,.0125*
20,1,.01,0.0,.0125,0.0,-.0125,0.0*
1,1,.01,0.0,-.0125*
%
%ADD10MACRO10*%
%ADD11C,.01*%
%ADD12C,.006*%
G75*
%LPD*%
G75*
G36*
G01X275150Y324460D02*
Y321940D01*
X277650D01*
Y125200D01*
X275150D01*
Y122680D01*
X290150D01*
Y125200D01*
X287650D01*
Y321940D01*
X290150D01*
Y324460D01*
X275150D01*
G37*
G36*
G01X255150Y122680D02*
Y125200D01*
X315150D01*
Y122680D01*
X255150D01*
G37*
G36*
G01Y321940D02*
Y324460D01*
X315150D01*
Y321940D01*
X255150D01*
G37*
G54D10*
X11000Y49000D03*
X32000Y54350D03*
X14000Y54000D03*
X40000Y63000D03*
X34000Y64000D03*
X35000Y102533D03*
X40000Y120000D03*
X35000Y109000D03*
X29000Y106000D03*
X33000Y148000D03*
X62000Y36000D03*
X69078Y40000D03*
X47292Y44000D03*
X67000Y63000D03*
X66000Y84000D03*
X51000Y100000D03*
X67000Y141000D03*
Y152000D03*
X51000Y138000D03*
X59000Y133000D03*
X44000Y148000D03*
X95000Y53000D03*
X75000Y73000D03*
X97000Y77000D03*
X84000Y84000D03*
X94900Y111900D03*
X83000Y97000D03*
X86376Y116624D03*
X76000Y135000D03*
X82000Y123000D03*
X101000Y133000D03*
Y127000D03*
X94642Y137394D03*
X104000Y52000D03*
X115000Y81000D03*
X102600Y112219D03*
X115000Y98000D03*
X108000Y144000D03*
X145000Y92000D03*
X139000Y106000D03*
X145000Y146000D03*
X150000Y153000D03*
X459450Y164500D03*
G54D11*
G01X0Y0D02*
Y160000D01*
X160000D01*
Y0D01*
X0D01*
G01Y170000D02*
Y175000D01*
G01X74525Y165000D02*
X0D01*
G01X15000Y167500D02*
X0Y165000D01*
X15000Y162500D01*
Y167500D01*
G01X99475Y165000D02*
X160000D01*
G01X145000Y162500D02*
X160000Y165000D01*
X145000Y167500D01*
Y162500D01*
G01X170000Y0D02*
X183000D01*
G01X173000Y48825D02*
Y0D01*
G01X170500Y15000D02*
X173000Y0D01*
X175500Y15000D01*
X170500D01*
G01X173000Y59175D02*
Y160000D01*
G01X175500Y145000D02*
X173000Y160000D01*
X170500Y145000D01*
X175500D01*
G01X160000Y170000D02*
Y175000D01*
G01X170000Y160000D02*
X183000D01*
G01X255150Y125200D02*
Y321940D01*
X315150D01*
Y125200D01*
X255150D01*
G01X439000Y160600D02*
Y209000D01*
X656600D01*
Y160600D01*
X439000D01*
G01Y176200D02*
X656600D01*
G01X439000Y168400D02*
X656600D01*
G01X439000Y184000D02*
X656600D01*
G01X479900Y176200D02*
Y160600D01*
G01X564000Y176200D02*
Y160600D01*
G01X621100Y176200D02*
Y160600D01*
G54D12*
G01X78900Y163050D02*
Y166950D01*
X78440Y166170D01*
G01Y163050D02*
X79360D01*
G01X84300Y162920D02*
X84223Y162985D01*
Y163115D01*
X84300Y163180D01*
X84377Y163115D01*
Y162985D01*
X84300Y162920D01*
G01X88972Y164675D02*
X89240Y165130D01*
X89470Y165390D01*
X89777Y165520D01*
X90045Y165390D01*
X90237Y165130D01*
X90390Y164740D01*
X90428Y164285D01*
X90390Y163895D01*
X90237Y163505D01*
X90007Y163180D01*
X89738Y163050D01*
X89432Y163180D01*
X89163Y163570D01*
X89010Y164155D01*
X88972Y164805D01*
X89048Y165650D01*
X89163Y166105D01*
X89355Y166560D01*
X89623Y166885D01*
X89892Y166950D01*
X90160Y166820D01*
X90352Y166495D01*
G01X95100Y166950D02*
X94793Y166820D01*
X94563Y166495D01*
X94410Y166105D01*
X94295Y165585D01*
X94257Y165000D01*
X94295Y164415D01*
X94410Y163895D01*
X94563Y163505D01*
X94793Y163180D01*
X95100Y163050D01*
X95407Y163180D01*
X95637Y163505D01*
X95790Y163895D01*
X95905Y164415D01*
X95943Y165000D01*
X95905Y165585D01*
X95790Y166105D01*
X95637Y166495D01*
X95407Y166820D01*
X95100Y166950D01*
G01X164900Y52050D02*
Y55950D01*
X164440Y55170D01*
G01Y52050D02*
X165360D01*
G01X170300Y51920D02*
X170223Y51985D01*
Y52115D01*
X170300Y52180D01*
X170377Y52115D01*
Y51985D01*
X170300Y51920D01*
G01X174972Y53675D02*
X175240Y54130D01*
X175470Y54390D01*
X175777Y54520D01*
X176045Y54390D01*
X176237Y54130D01*
X176390Y53740D01*
X176428Y53285D01*
X176390Y52895D01*
X176237Y52505D01*
X176007Y52180D01*
X175738Y52050D01*
X175432Y52180D01*
X175163Y52570D01*
X175010Y53155D01*
X174972Y53805D01*
X175048Y54650D01*
X175163Y55105D01*
X175355Y55560D01*
X175623Y55885D01*
X175892Y55950D01*
X176160Y55820D01*
X176352Y55495D01*
G01X181100Y55950D02*
X180793Y55820D01*
X180563Y55495D01*
X180410Y55105D01*
X180295Y54585D01*
X180257Y54000D01*
X180295Y53415D01*
X180410Y52895D01*
X180563Y52505D01*
X180793Y52180D01*
X181100Y52050D01*
X181407Y52180D01*
X181637Y52505D01*
X181790Y52895D01*
X181905Y53415D01*
X181943Y54000D01*
X181905Y54585D01*
X181790Y55105D01*
X181637Y55495D01*
X181407Y55820D01*
X181100Y55950D01*
G01X248057Y105400D02*
Y109300D01*
X248823D01*
X249130Y109105D01*
X249360Y108845D01*
X249552Y108455D01*
X249705Y108000D01*
X249743Y107350D01*
X249705Y106700D01*
X249552Y106245D01*
X249360Y105855D01*
X249130Y105595D01*
X248823Y105400D01*
X248057D01*
G01X252567D02*
X251033D01*
Y109300D01*
X252567D01*
G01X251953Y107415D02*
X251033D01*
G01X253895Y105920D02*
X254202Y105595D01*
X254547Y105400D01*
X254853D01*
X255160Y105595D01*
X255390Y105920D01*
X255505Y106375D01*
X255428Y106830D01*
X255237Y107220D01*
X254892Y107480D01*
X254432Y107610D01*
X254163Y107870D01*
X254048Y108325D01*
X254125Y108780D01*
X254317Y109105D01*
X254585Y109300D01*
X254853D01*
X255122Y109170D01*
X255352Y108845D01*
G01X257140Y109300D02*
X258060D01*
G01X257600D02*
Y105400D01*
G01X257140D02*
X258060D01*
G01X260730Y107350D02*
X261497D01*
Y106180D01*
X261267Y105790D01*
X260998Y105530D01*
X260615Y105400D01*
X260232Y105530D01*
X259963Y105790D01*
X259733Y106180D01*
X259580Y106635D01*
X259503Y107155D01*
Y107610D01*
X259580Y108000D01*
X259733Y108455D01*
X259963Y108845D01*
X260193Y109105D01*
X260500Y109300D01*
X260768D01*
X261075Y109170D01*
X261305Y108910D01*
G01X262518Y105400D02*
Y109300D01*
X264282Y105400D01*
Y109300D01*
G01X270043Y108975D02*
X269813Y109170D01*
X269545Y109300D01*
X269238D01*
X268893Y109105D01*
X268625Y108780D01*
X268433Y108390D01*
X268280Y107740D01*
X268242Y107155D01*
X268318Y106570D01*
X268433Y106180D01*
X268663Y105790D01*
X268932Y105530D01*
X269200Y105400D01*
X269468D01*
X269737Y105530D01*
X269967Y105725D01*
X270158Y105985D01*
G01X271333Y105400D02*
Y109300D01*
X272292D01*
X272598Y109105D01*
X272790Y108845D01*
X272867Y108325D01*
X272790Y107805D01*
X272560Y107480D01*
X272292Y107285D01*
X271333D01*
G01X272292D02*
X272867Y105400D01*
G01X275000D02*
X274693Y105465D01*
X274425Y105725D01*
X274195Y106115D01*
X274042Y106570D01*
X273965Y107090D01*
Y107610D01*
X274042Y108130D01*
X274195Y108585D01*
X274425Y108975D01*
X274693Y109235D01*
X275000Y109300D01*
X275307Y109235D01*
X275575Y108975D01*
X275805Y108585D01*
X275958Y108130D01*
X276035Y107610D01*
Y107090D01*
X275958Y106570D01*
X275805Y106115D01*
X275575Y105725D01*
X275307Y105465D01*
X275000Y105400D01*
G01X277095Y105920D02*
X277402Y105595D01*
X277747Y105400D01*
X278053D01*
X278360Y105595D01*
X278590Y105920D01*
X278705Y106375D01*
X278628Y106830D01*
X278437Y107220D01*
X278092Y107480D01*
X277632Y107610D01*
X277363Y107870D01*
X277248Y108325D01*
X277325Y108780D01*
X277517Y109105D01*
X277785Y109300D01*
X278053D01*
X278322Y109170D01*
X278552Y108845D01*
G01X279995Y105920D02*
X280302Y105595D01*
X280647Y105400D01*
X280953D01*
X281260Y105595D01*
X281490Y105920D01*
X281605Y106375D01*
X281528Y106830D01*
X281337Y107220D01*
X280992Y107480D01*
X280532Y107610D01*
X280263Y107870D01*
X280148Y108325D01*
X280225Y108780D01*
X280417Y109105D01*
X280685Y109300D01*
X280953D01*
X281222Y109170D01*
X281452Y108845D01*
G01X285795Y105920D02*
X286102Y105595D01*
X286447Y105400D01*
X286753D01*
X287060Y105595D01*
X287290Y105920D01*
X287405Y106375D01*
X287328Y106830D01*
X287137Y107220D01*
X286792Y107480D01*
X286332Y107610D01*
X286063Y107870D01*
X285948Y108325D01*
X286025Y108780D01*
X286217Y109105D01*
X286485Y109300D01*
X286753D01*
X287022Y109170D01*
X287252Y108845D01*
G01X290267Y105400D02*
X288733D01*
Y109300D01*
X290267D01*
G01X289653Y107415D02*
X288733D01*
G01X293243Y108975D02*
X293013Y109170D01*
X292745Y109300D01*
X292438D01*
X292093Y109105D01*
X291825Y108780D01*
X291633Y108390D01*
X291480Y107740D01*
X291442Y107155D01*
X291518Y106570D01*
X291633Y106180D01*
X291863Y105790D01*
X292132Y105530D01*
X292400Y105400D01*
X292668D01*
X292937Y105530D01*
X293167Y105725D01*
X293358Y105985D01*
G01X295300Y109300D02*
Y105400D01*
G01X294418Y109300D02*
X296182D01*
G01X297740D02*
X298660D01*
G01X298200D02*
Y105400D01*
G01X297740D02*
X298660D01*
G01X301100D02*
X300793Y105465D01*
X300525Y105725D01*
X300295Y106115D01*
X300142Y106570D01*
X300065Y107090D01*
Y107610D01*
X300142Y108130D01*
X300295Y108585D01*
X300525Y108975D01*
X300793Y109235D01*
X301100Y109300D01*
X301407Y109235D01*
X301675Y108975D01*
X301905Y108585D01*
X302058Y108130D01*
X302135Y107610D01*
Y107090D01*
X302058Y106570D01*
X301905Y106115D01*
X301675Y105725D01*
X301407Y105465D01*
X301100Y105400D01*
G01X303118D02*
Y109300D01*
X304882Y105400D01*
Y109300D01*
G01X310643Y108975D02*
X310413Y109170D01*
X310145Y109300D01*
X309838D01*
X309493Y109105D01*
X309225Y108780D01*
X309033Y108390D01*
X308880Y107740D01*
X308842Y107155D01*
X308918Y106570D01*
X309033Y106180D01*
X309263Y105790D01*
X309532Y105530D01*
X309800Y105400D01*
X310068D01*
X310337Y105530D01*
X310567Y105725D01*
X310758Y105985D01*
G01X311895Y105400D02*
Y109300D01*
G01X313505D02*
Y105400D01*
G01Y107350D02*
X311895D01*
G01X314642Y105400D02*
X315600Y109300D01*
X316558Y105400D01*
G01X316213Y106765D02*
X314987D01*
G01X317733Y105400D02*
Y109300D01*
X318692D01*
X318998Y109105D01*
X319190Y108845D01*
X319267Y108325D01*
X319190Y107805D01*
X318960Y107480D01*
X318692Y107285D01*
X317733D01*
G01X318692D02*
X319267Y105400D01*
G01X321400Y109300D02*
Y105400D01*
G01X320518Y109300D02*
X322282D01*
G01X246300Y104100D02*
X248600D01*
G01X249200D02*
X251500D01*
G01X252100D02*
X254400D01*
G01X255000D02*
X257300D01*
G01X257900D02*
X260200D01*
G01X260800D02*
X263100D01*
G01X263700D02*
X266000D01*
G01X266600D02*
X268900D01*
G01X269500D02*
X271800D01*
G01X272400D02*
X274700D01*
G01X275300D02*
X277600D01*
G01X278200D02*
X280500D01*
G01X281100D02*
X283400D01*
G01X284000D02*
X286300D01*
G01X286900D02*
X289200D01*
G01X289800D02*
X292100D01*
G01X292700D02*
X295000D01*
G01X295600D02*
X297900D01*
G01X298500D02*
X300800D01*
G01X301400D02*
X303700D01*
G01X304300D02*
X306600D01*
G01X307200D02*
X309500D01*
G01X310100D02*
X312400D01*
G01X313000D02*
X315300D01*
G01X315900D02*
X318200D01*
G01X318800D02*
X321100D01*
G01X321700D02*
X324000D01*
G01X250350Y101500D02*
Y97600D01*
G01X249468Y101500D02*
X251232D01*
G01X253250Y97600D02*
X252943Y97665D01*
X252675Y97925D01*
X252445Y98315D01*
X252292Y98770D01*
X252215Y99290D01*
Y99810D01*
X252292Y100330D01*
X252445Y100785D01*
X252675Y101175D01*
X252943Y101435D01*
X253250Y101500D01*
X253557Y101435D01*
X253825Y101175D01*
X254055Y100785D01*
X254208Y100330D01*
X254285Y99810D01*
Y99290D01*
X254208Y98770D01*
X254055Y98315D01*
X253825Y97925D01*
X253557Y97665D01*
X253250Y97600D01*
G01X256150Y101500D02*
Y97600D01*
G01X255268Y101500D02*
X257032D01*
G01X258092Y97600D02*
X259050Y101500D01*
X260008Y97600D01*
G01X259663Y98965D02*
X258437D01*
G01X261183Y101500D02*
Y97600D01*
X262717D01*
G01X267750Y101500D02*
Y97600D01*
G01X266868Y101500D02*
X268632D01*
G01X269845Y97600D02*
Y101500D01*
G01X271455D02*
Y97600D01*
G01Y99550D02*
X269845D01*
G01X273090Y101500D02*
X274010D01*
G01X273550D02*
Y97600D01*
G01X273090D02*
X274010D01*
G01X277293Y101175D02*
X277063Y101370D01*
X276795Y101500D01*
X276488D01*
X276143Y101305D01*
X275875Y100980D01*
X275683Y100590D01*
X275530Y99940D01*
X275492Y99355D01*
X275568Y98770D01*
X275683Y98380D01*
X275913Y97990D01*
X276182Y97730D01*
X276450Y97600D01*
X276718D01*
X276987Y97730D01*
X277217Y97925D01*
X277408Y98185D01*
G01X278507Y97600D02*
Y101500D01*
G01X279963D02*
X278507Y99095D01*
G01X280193Y97600D02*
X279158Y100200D01*
G01X281368Y97600D02*
Y101500D01*
X283132Y97600D01*
Y101500D01*
G01X285917Y97600D02*
X284383D01*
Y101500D01*
X285917D01*
G01X285303Y99615D02*
X284383D01*
G01X287245Y98120D02*
X287552Y97795D01*
X287897Y97600D01*
X288203D01*
X288510Y97795D01*
X288740Y98120D01*
X288855Y98575D01*
X288778Y99030D01*
X288587Y99420D01*
X288242Y99680D01*
X287782Y99810D01*
X287513Y100070D01*
X287398Y100525D01*
X287475Y100980D01*
X287667Y101305D01*
X287935Y101500D01*
X288203D01*
X288472Y101370D01*
X288702Y101045D01*
G01X290145Y98120D02*
X290452Y97795D01*
X290797Y97600D01*
X291103D01*
X291410Y97795D01*
X291640Y98120D01*
X291755Y98575D01*
X291678Y99030D01*
X291487Y99420D01*
X291142Y99680D01*
X290682Y99810D01*
X290413Y100070D01*
X290298Y100525D01*
X290375Y100980D01*
X290567Y101305D01*
X290835Y101500D01*
X291103D01*
X291372Y101370D01*
X291602Y101045D01*
G01X295907Y98185D02*
X296137Y97860D01*
X296405Y97665D01*
X296750Y97600D01*
X297095Y97730D01*
X297363Y97990D01*
X297555Y98445D01*
X297593Y98965D01*
X297517Y99485D01*
X297325Y99810D01*
X297057Y100070D01*
X296788Y100135D01*
X296520Y100070D01*
X296175Y99810D01*
X296290Y101500D01*
X297325D01*
G01X298922Y99225D02*
X299190Y99680D01*
X299420Y99940D01*
X299727Y100070D01*
X299995Y99940D01*
X300187Y99680D01*
X300340Y99290D01*
X300378Y98835D01*
X300340Y98445D01*
X300187Y98055D01*
X299957Y97730D01*
X299688Y97600D01*
X299382Y97730D01*
X299113Y98120D01*
X298960Y98705D01*
X298922Y99355D01*
X298998Y100200D01*
X299113Y100655D01*
X299305Y101110D01*
X299573Y101435D01*
X299842Y101500D01*
X300110Y101370D01*
X300302Y101045D01*
G01X302550Y97470D02*
X302473Y97535D01*
Y97665D01*
X302550Y97730D01*
X302627Y97665D01*
Y97535D01*
X302550Y97470D01*
G01X305450Y101500D02*
X305143Y101370D01*
X304913Y101045D01*
X304760Y100655D01*
X304645Y100135D01*
X304607Y99550D01*
X304645Y98965D01*
X304760Y98445D01*
X304913Y98055D01*
X305143Y97730D01*
X305450Y97600D01*
X305757Y97730D01*
X305987Y98055D01*
X306140Y98445D01*
X306255Y98965D01*
X306293Y99550D01*
X306255Y100135D01*
X306140Y100655D01*
X305987Y101045D01*
X305757Y101370D01*
X305450Y101500D01*
G01X307507Y98185D02*
X307737Y97860D01*
X308005Y97665D01*
X308350Y97600D01*
X308695Y97730D01*
X308963Y97990D01*
X309155Y98445D01*
X309193Y98965D01*
X309117Y99485D01*
X308925Y99810D01*
X308657Y100070D01*
X308388Y100135D01*
X308120Y100070D01*
X307775Y99810D01*
X307890Y101500D01*
X308925D01*
G01X313153Y97600D02*
Y101500D01*
X314150Y98250D01*
X315147Y101500D01*
Y97600D01*
G01X316590Y101500D02*
X317510D01*
G01X317050D02*
Y97600D01*
G01X316590D02*
X317510D01*
G01X319183Y101500D02*
Y97600D01*
X320717D01*
G01X282650Y329510D02*
X278750D01*
X279530Y329050D01*
G01X282650D02*
Y329970D01*
G01X281350Y331912D02*
Y332908D01*
G01X279400Y334582D02*
X279010Y334812D01*
X278815Y335080D01*
X278750Y335387D01*
X278880Y335770D01*
X279205Y336038D01*
X279595Y336115D01*
X279985Y336077D01*
X280310Y335923D01*
X280960Y335157D01*
X281415Y334812D01*
X282065Y334582D01*
X282650Y334505D01*
Y336115D01*
G01X318433Y123900D02*
Y120000D01*
X319967D01*
G01X321372Y123250D02*
X321602Y123640D01*
X321870Y123835D01*
X322177Y123900D01*
X322560Y123770D01*
X322828Y123445D01*
X322905Y123055D01*
X322867Y122665D01*
X322713Y122340D01*
X321947Y121690D01*
X321602Y121235D01*
X321372Y120585D01*
X321295Y120000D01*
X322905D01*
G01X325000Y119870D02*
X324923Y119935D01*
Y120065D01*
X325000Y120130D01*
X325077Y120065D01*
Y119935D01*
X325000Y119870D01*
G01Y121625D02*
X324923Y121690D01*
Y121820D01*
X325000Y121885D01*
X325077Y121820D01*
Y121690D01*
X325000Y121625D01*
G01X331107Y122080D02*
X331260Y122275D01*
X331375Y122600D01*
X331452Y123055D01*
X331375Y123445D01*
X331222Y123705D01*
X330953Y123900D01*
X329918D01*
Y120000D01*
X331183D01*
X331452Y120260D01*
X331605Y120650D01*
X331682Y121105D01*
X331605Y121560D01*
X331375Y121950D01*
X331107Y122080D01*
X329918D01*
G01X333700Y120000D02*
X333393Y120065D01*
X333125Y120325D01*
X332895Y120715D01*
X332742Y121170D01*
X332665Y121690D01*
Y122210D01*
X332742Y122730D01*
X332895Y123185D01*
X333125Y123575D01*
X333393Y123835D01*
X333700Y123900D01*
X334007Y123835D01*
X334275Y123575D01*
X334505Y123185D01*
X334658Y122730D01*
X334735Y122210D01*
Y121690D01*
X334658Y121170D01*
X334505Y120715D01*
X334275Y120325D01*
X334007Y120065D01*
X333700Y120000D01*
G01X336600Y123900D02*
Y120000D01*
G01X335718Y123900D02*
X337482D01*
G01X339500D02*
Y120000D01*
G01X338618Y123900D02*
X340382D01*
G01X342400Y120000D02*
X342093Y120065D01*
X341825Y120325D01*
X341595Y120715D01*
X341442Y121170D01*
X341365Y121690D01*
Y122210D01*
X341442Y122730D01*
X341595Y123185D01*
X341825Y123575D01*
X342093Y123835D01*
X342400Y123900D01*
X342707Y123835D01*
X342975Y123575D01*
X343205Y123185D01*
X343358Y122730D01*
X343435Y122210D01*
Y121690D01*
X343358Y121170D01*
X343205Y120715D01*
X342975Y120325D01*
X342707Y120065D01*
X342400Y120000D01*
G01X344303D02*
Y123900D01*
X345300Y120650D01*
X346297Y123900D01*
Y120000D01*
G01X351943Y123575D02*
X351713Y123770D01*
X351445Y123900D01*
X351138D01*
X350793Y123705D01*
X350525Y123380D01*
X350333Y122990D01*
X350180Y122340D01*
X350142Y121755D01*
X350218Y121170D01*
X350333Y120780D01*
X350563Y120390D01*
X350832Y120130D01*
X351100Y120000D01*
X351368D01*
X351637Y120130D01*
X351867Y120325D01*
X352058Y120585D01*
G01X354000Y120000D02*
X353693Y120065D01*
X353425Y120325D01*
X353195Y120715D01*
X353042Y121170D01*
X352965Y121690D01*
Y122210D01*
X353042Y122730D01*
X353195Y123185D01*
X353425Y123575D01*
X353693Y123835D01*
X354000Y123900D01*
X354307Y123835D01*
X354575Y123575D01*
X354805Y123185D01*
X354958Y122730D01*
X355035Y122210D01*
Y121690D01*
X354958Y121170D01*
X354805Y120715D01*
X354575Y120325D01*
X354307Y120065D01*
X354000Y120000D01*
G01X356018D02*
Y123900D01*
X357782Y120000D01*
Y123900D01*
G01X358957Y120000D02*
Y123900D01*
X359723D01*
X360030Y123705D01*
X360260Y123445D01*
X360452Y123055D01*
X360605Y122600D01*
X360643Y121950D01*
X360605Y121300D01*
X360452Y120845D01*
X360260Y120455D01*
X360030Y120195D01*
X359723Y120000D01*
X358957D01*
G01X361857Y123900D02*
Y121105D01*
X362010Y120520D01*
X362317Y120130D01*
X362700Y120000D01*
X363083Y120130D01*
X363390Y120520D01*
X363543Y121105D01*
Y123900D01*
G01X366443Y123575D02*
X366213Y123770D01*
X365945Y123900D01*
X365638D01*
X365293Y123705D01*
X365025Y123380D01*
X364833Y122990D01*
X364680Y122340D01*
X364642Y121755D01*
X364718Y121170D01*
X364833Y120780D01*
X365063Y120390D01*
X365332Y120130D01*
X365600Y120000D01*
X365868D01*
X366137Y120130D01*
X366367Y120325D01*
X366558Y120585D01*
G01X368500Y123900D02*
Y120000D01*
G01X367618Y123900D02*
X369382D01*
G01X371400Y120000D02*
X371093Y120065D01*
X370825Y120325D01*
X370595Y120715D01*
X370442Y121170D01*
X370365Y121690D01*
Y122210D01*
X370442Y122730D01*
X370595Y123185D01*
X370825Y123575D01*
X371093Y123835D01*
X371400Y123900D01*
X371707Y123835D01*
X371975Y123575D01*
X372205Y123185D01*
X372358Y122730D01*
X372435Y122210D01*
Y121690D01*
X372358Y121170D01*
X372205Y120715D01*
X371975Y120325D01*
X371707Y120065D01*
X371400Y120000D01*
G01X373533D02*
Y123900D01*
X374492D01*
X374798Y123705D01*
X374990Y123445D01*
X375067Y122925D01*
X374990Y122405D01*
X374760Y122080D01*
X374492Y121885D01*
X373533D01*
G01X374492D02*
X375067Y120000D01*
G01X379602Y121300D02*
X380598D01*
G01X386743Y123575D02*
X386513Y123770D01*
X386245Y123900D01*
X385938D01*
X385593Y123705D01*
X385325Y123380D01*
X385133Y122990D01*
X384980Y122340D01*
X384942Y121755D01*
X385018Y121170D01*
X385133Y120780D01*
X385363Y120390D01*
X385632Y120130D01*
X385900Y120000D01*
X386168D01*
X386437Y120130D01*
X386667Y120325D01*
X386858Y120585D01*
G01X388800Y120000D02*
X388493Y120065D01*
X388225Y120325D01*
X387995Y120715D01*
X387842Y121170D01*
X387765Y121690D01*
Y122210D01*
X387842Y122730D01*
X387995Y123185D01*
X388225Y123575D01*
X388493Y123835D01*
X388800Y123900D01*
X389107Y123835D01*
X389375Y123575D01*
X389605Y123185D01*
X389758Y122730D01*
X389835Y122210D01*
Y121690D01*
X389758Y121170D01*
X389605Y120715D01*
X389375Y120325D01*
X389107Y120065D01*
X388800Y120000D01*
G01X390933D02*
Y123900D01*
X391853D01*
X392160Y123705D01*
X392390Y123250D01*
X392467Y122730D01*
X392390Y122210D01*
X392198Y121820D01*
X391853Y121625D01*
X390933D01*
G01X393833Y120000D02*
Y123900D01*
X394753D01*
X395060Y123705D01*
X395290Y123250D01*
X395367Y122730D01*
X395290Y122210D01*
X395098Y121820D01*
X394753Y121625D01*
X393833D01*
G01X398267Y120000D02*
X396733D01*
Y123900D01*
X398267D01*
G01X397653Y122015D02*
X396733D01*
G01X399633Y120000D02*
Y123900D01*
X400592D01*
X400898Y123705D01*
X401090Y123445D01*
X401167Y122925D01*
X401090Y122405D01*
X400860Y122080D01*
X400592Y121885D01*
X399633D01*
G01X400592D02*
X401167Y120000D01*
G01X406200Y123900D02*
X405893Y123770D01*
X405663Y123445D01*
X405510Y123055D01*
X405395Y122535D01*
X405357Y121950D01*
X405395Y121365D01*
X405510Y120845D01*
X405663Y120455D01*
X405893Y120130D01*
X406200Y120000D01*
X406507Y120130D01*
X406737Y120455D01*
X406890Y120845D01*
X407005Y121365D01*
X407043Y121950D01*
X407005Y122535D01*
X406890Y123055D01*
X406737Y123445D01*
X406507Y123770D01*
X406200Y123900D01*
G01X409100Y119870D02*
X409023Y119935D01*
Y120065D01*
X409100Y120130D01*
X409177Y120065D01*
Y119935D01*
X409100Y119870D01*
G01X411923Y120000D02*
X412000Y120845D01*
X412115Y121560D01*
X412268Y122210D01*
X412460Y122925D01*
X412767Y123900D01*
X411233D01*
G01X416803Y120000D02*
Y123900D01*
X417800Y120650D01*
X418797Y123900D01*
Y120000D01*
G01X420240Y123900D02*
X421160D01*
G01X420700D02*
Y120000D01*
G01X420240D02*
X421160D01*
G01X422833Y123900D02*
Y120000D01*
X424367D01*
G01X324157Y114670D02*
X325843Y117530D01*
G01X325000Y118050D02*
Y114150D01*
G01X325843Y114670D02*
X324157Y117530D01*
G01X323850Y116100D02*
X326150D01*
G01X332895Y115320D02*
X333202Y114995D01*
X333547Y114800D01*
X333853D01*
X334160Y114995D01*
X334390Y115320D01*
X334505Y115775D01*
X334428Y116230D01*
X334237Y116620D01*
X333892Y116880D01*
X333432Y117010D01*
X333163Y117270D01*
X333048Y117725D01*
X333125Y118180D01*
X333317Y118505D01*
X333585Y118700D01*
X333853D01*
X334122Y118570D01*
X334352Y118245D01*
G01X335757Y118700D02*
Y115905D01*
X335910Y115320D01*
X336217Y114930D01*
X336600Y114800D01*
X336983Y114930D01*
X337290Y115320D01*
X337443Y115905D01*
Y118700D01*
G01X338733Y114800D02*
Y118700D01*
X339692D01*
X339998Y118505D01*
X340190Y118245D01*
X340267Y117725D01*
X340190Y117205D01*
X339960Y116880D01*
X339692Y116685D01*
X338733D01*
G01X339692D02*
X340267Y114800D01*
G01X341672D02*
Y118700D01*
X343128D01*
G01X342592Y116815D02*
X341672D01*
G01X344342Y114800D02*
X345300Y118700D01*
X346258Y114800D01*
G01X345913Y116165D02*
X344687D01*
G01X349043Y118375D02*
X348813Y118570D01*
X348545Y118700D01*
X348238D01*
X347893Y118505D01*
X347625Y118180D01*
X347433Y117790D01*
X347280Y117140D01*
X347242Y116555D01*
X347318Y115970D01*
X347433Y115580D01*
X347663Y115190D01*
X347932Y114930D01*
X348200Y114800D01*
X348468D01*
X348737Y114930D01*
X348967Y115125D01*
X349158Y115385D01*
G01X351867Y114800D02*
X350333D01*
Y118700D01*
X351867D01*
G01X351253Y116815D02*
X350333D01*
G01X356402Y116100D02*
X357398D01*
G01X361742Y114800D02*
X362700Y118700D01*
X363658Y114800D01*
G01X363313Y116165D02*
X362087D01*
G01X365140Y118700D02*
X366060D01*
G01X365600D02*
Y114800D01*
G01X365140D02*
X366060D01*
G01X367733D02*
Y118700D01*
X368692D01*
X368998Y118505D01*
X369190Y118245D01*
X369267Y117725D01*
X369190Y117205D01*
X368960Y116880D01*
X368692Y116685D01*
X367733D01*
G01X368692D02*
X369267Y114800D01*
G01X374300Y118700D02*
X373993Y118570D01*
X373763Y118245D01*
X373610Y117855D01*
X373495Y117335D01*
X373457Y116750D01*
X373495Y116165D01*
X373610Y115645D01*
X373763Y115255D01*
X373993Y114930D01*
X374300Y114800D01*
X374607Y114930D01*
X374837Y115255D01*
X374990Y115645D01*
X375105Y116165D01*
X375143Y116750D01*
X375105Y117335D01*
X374990Y117855D01*
X374837Y118245D01*
X374607Y118570D01*
X374300Y118700D01*
G01X379103Y114800D02*
Y118700D01*
X380100Y115450D01*
X381097Y118700D01*
Y114800D01*
G01X382540Y118700D02*
X383460D01*
G01X383000D02*
Y114800D01*
G01X382540D02*
X383460D01*
G01X385133Y118700D02*
Y114800D01*
X386667D01*
G01X324157Y223440D02*
X325843Y226300D01*
G01X325000Y226820D02*
Y222920D01*
G01X325843Y223440D02*
X324157Y226300D01*
G01X323850Y224870D02*
X326150D01*
G01X332857Y223570D02*
Y227470D01*
X333623D01*
X333930Y227275D01*
X334160Y227015D01*
X334352Y226625D01*
X334505Y226170D01*
X334543Y225520D01*
X334505Y224870D01*
X334352Y224415D01*
X334160Y224025D01*
X333930Y223765D01*
X333623Y223570D01*
X332857D01*
G01X336140Y227470D02*
X337060D01*
G01X336600D02*
Y223570D01*
G01X336140D02*
X337060D01*
G01X340267D02*
X338733D01*
Y227470D01*
X340267D01*
G01X339653Y225585D02*
X338733D01*
G01X341633Y227470D02*
Y223570D01*
X343167D01*
G01X346067D02*
X344533D01*
Y227470D01*
X346067D01*
G01X345453Y225585D02*
X344533D01*
G01X349043Y227145D02*
X348813Y227340D01*
X348545Y227470D01*
X348238D01*
X347893Y227275D01*
X347625Y226950D01*
X347433Y226560D01*
X347280Y225910D01*
X347242Y225325D01*
X347318Y224740D01*
X347433Y224350D01*
X347663Y223960D01*
X347932Y223700D01*
X348200Y223570D01*
X348468D01*
X348737Y223700D01*
X348967Y223895D01*
X349158Y224155D01*
G01X351100Y227470D02*
Y223570D01*
G01X350218Y227470D02*
X351982D01*
G01X353233Y223570D02*
Y227470D01*
X354192D01*
X354498Y227275D01*
X354690Y227015D01*
X354767Y226495D01*
X354690Y225975D01*
X354460Y225650D01*
X354192Y225455D01*
X353233D01*
G01X354192D02*
X354767Y223570D01*
G01X356440Y227470D02*
X357360D01*
G01X356900D02*
Y223570D01*
G01X356440D02*
X357360D01*
G01X360643Y227145D02*
X360413Y227340D01*
X360145Y227470D01*
X359838D01*
X359493Y227275D01*
X359225Y226950D01*
X359033Y226560D01*
X358880Y225910D01*
X358842Y225325D01*
X358918Y224740D01*
X359033Y224350D01*
X359263Y223960D01*
X359532Y223700D01*
X359800Y223570D01*
X360068D01*
X360337Y223700D01*
X360567Y223895D01*
X360758Y224155D01*
G01X365102Y224870D02*
X366098D01*
G01X370672Y223570D02*
Y227470D01*
X372128D01*
G01X371592Y225585D02*
X370672D01*
G01X373533Y223570D02*
Y227470D01*
X374492D01*
X374798Y227275D01*
X374990Y227015D01*
X375067Y226495D01*
X374990Y225975D01*
X374760Y225650D01*
X374492Y225455D01*
X373533D01*
G01X374492D02*
X375067Y223570D01*
G01X376702Y224870D02*
X377698D01*
G01X380560Y223570D02*
Y227470D01*
X379142Y224675D01*
X381058D01*
G01X385057Y224155D02*
X385287Y223830D01*
X385555Y223635D01*
X385900Y223570D01*
X386245Y223700D01*
X386513Y223960D01*
X386705Y224415D01*
X386743Y224935D01*
X386667Y225455D01*
X386475Y225780D01*
X386207Y226040D01*
X385938Y226105D01*
X385670Y226040D01*
X385325Y225780D01*
X385440Y227470D01*
X386475D01*
G01X389260Y223570D02*
Y227470D01*
X387842Y224675D01*
X389758D01*
G01X391700Y223440D02*
X391623Y223505D01*
Y223635D01*
X391700Y223700D01*
X391777Y223635D01*
Y223505D01*
X391700Y223440D01*
G01X393872Y225195D02*
X394140Y225650D01*
X394370Y225910D01*
X394677Y226040D01*
X394945Y225910D01*
X395137Y225650D01*
X395290Y225260D01*
X395328Y224805D01*
X395290Y224415D01*
X395137Y224025D01*
X394907Y223700D01*
X394638Y223570D01*
X394332Y223700D01*
X394063Y224090D01*
X393910Y224675D01*
X393872Y225325D01*
X393948Y226170D01*
X394063Y226625D01*
X394255Y227080D01*
X394523Y227405D01*
X394792Y227470D01*
X395060Y227340D01*
X395252Y227015D01*
G01X396657Y224155D02*
X396887Y223830D01*
X397155Y223635D01*
X397500Y223570D01*
X397845Y223700D01*
X398113Y223960D01*
X398305Y224415D01*
X398343Y224935D01*
X398267Y225455D01*
X398075Y225780D01*
X397807Y226040D01*
X397538Y226105D01*
X397270Y226040D01*
X396925Y225780D01*
X397040Y227470D01*
X398075D01*
G01X402303Y223570D02*
Y227470D01*
X403300Y224220D01*
X404297Y227470D01*
Y223570D01*
G01X405740Y227470D02*
X406660D01*
G01X406200D02*
Y223570D01*
G01X405740D02*
X406660D01*
G01X408333Y227470D02*
Y223570D01*
X409867D01*
G01X324157Y325630D02*
X325843Y328490D01*
G01X325000Y329010D02*
Y325110D01*
G01X325843Y325630D02*
X324157Y328490D01*
G01X323850Y327060D02*
X326150D01*
G01X332895Y326280D02*
X333202Y325955D01*
X333547Y325760D01*
X333853D01*
X334160Y325955D01*
X334390Y326280D01*
X334505Y326735D01*
X334428Y327190D01*
X334237Y327580D01*
X333892Y327840D01*
X333432Y327970D01*
X333163Y328230D01*
X333048Y328685D01*
X333125Y329140D01*
X333317Y329465D01*
X333585Y329660D01*
X333853D01*
X334122Y329530D01*
X334352Y329205D01*
G01X335757Y329660D02*
Y326865D01*
X335910Y326280D01*
X336217Y325890D01*
X336600Y325760D01*
X336983Y325890D01*
X337290Y326280D01*
X337443Y326865D01*
Y329660D01*
G01X338733Y325760D02*
Y329660D01*
X339692D01*
X339998Y329465D01*
X340190Y329205D01*
X340267Y328685D01*
X340190Y328165D01*
X339960Y327840D01*
X339692Y327645D01*
X338733D01*
G01X339692D02*
X340267Y325760D01*
G01X341672D02*
Y329660D01*
X343128D01*
G01X342592Y327775D02*
X341672D01*
G01X344342Y325760D02*
X345300Y329660D01*
X346258Y325760D01*
G01X345913Y327125D02*
X344687D01*
G01X349043Y329335D02*
X348813Y329530D01*
X348545Y329660D01*
X348238D01*
X347893Y329465D01*
X347625Y329140D01*
X347433Y328750D01*
X347280Y328100D01*
X347242Y327515D01*
X347318Y326930D01*
X347433Y326540D01*
X347663Y326150D01*
X347932Y325890D01*
X348200Y325760D01*
X348468D01*
X348737Y325890D01*
X348967Y326085D01*
X349158Y326345D01*
G01X351867Y325760D02*
X350333D01*
Y329660D01*
X351867D01*
G01X351253Y327775D02*
X350333D01*
G01X356402Y327060D02*
X357398D01*
G01X361742Y325760D02*
X362700Y329660D01*
X363658Y325760D01*
G01X363313Y327125D02*
X362087D01*
G01X365140Y329660D02*
X366060D01*
G01X365600D02*
Y325760D01*
G01X365140D02*
X366060D01*
G01X367733D02*
Y329660D01*
X368692D01*
X368998Y329465D01*
X369190Y329205D01*
X369267Y328685D01*
X369190Y328165D01*
X368960Y327840D01*
X368692Y327645D01*
X367733D01*
G01X368692D02*
X369267Y325760D01*
G01X374300Y329660D02*
X373993Y329530D01*
X373763Y329205D01*
X373610Y328815D01*
X373495Y328295D01*
X373457Y327710D01*
X373495Y327125D01*
X373610Y326605D01*
X373763Y326215D01*
X373993Y325890D01*
X374300Y325760D01*
X374607Y325890D01*
X374837Y326215D01*
X374990Y326605D01*
X375105Y327125D01*
X375143Y327710D01*
X375105Y328295D01*
X374990Y328815D01*
X374837Y329205D01*
X374607Y329530D01*
X374300Y329660D01*
G01X379103Y325760D02*
Y329660D01*
X380100Y326410D01*
X381097Y329660D01*
Y325760D01*
G01X382540Y329660D02*
X383460D01*
G01X383000D02*
Y325760D01*
G01X382540D02*
X383460D01*
G01X385133Y329660D02*
Y325760D01*
X386667D01*
G01X318433Y323160D02*
Y319260D01*
X319967D01*
G01X322100D02*
Y323160D01*
X321640Y322380D01*
G01Y319260D02*
X322560D01*
G01X325000Y319130D02*
X324923Y319195D01*
Y319325D01*
X325000Y319390D01*
X325077Y319325D01*
Y319195D01*
X325000Y319130D01*
G01Y320885D02*
X324923Y320950D01*
Y321080D01*
X325000Y321145D01*
X325077Y321080D01*
Y320950D01*
X325000Y320885D01*
G01X330800Y323160D02*
Y319260D01*
G01X329918Y323160D02*
X331682D01*
G01X333700Y319260D02*
X333393Y319325D01*
X333125Y319585D01*
X332895Y319975D01*
X332742Y320430D01*
X332665Y320950D01*
Y321470D01*
X332742Y321990D01*
X332895Y322445D01*
X333125Y322835D01*
X333393Y323095D01*
X333700Y323160D01*
X334007Y323095D01*
X334275Y322835D01*
X334505Y322445D01*
X334658Y321990D01*
X334735Y321470D01*
Y320950D01*
X334658Y320430D01*
X334505Y319975D01*
X334275Y319585D01*
X334007Y319325D01*
X333700Y319260D01*
G01X335833D02*
Y323160D01*
X336753D01*
X337060Y322965D01*
X337290Y322510D01*
X337367Y321990D01*
X337290Y321470D01*
X337098Y321080D01*
X336753Y320885D01*
X335833D01*
G01X343243Y322835D02*
X343013Y323030D01*
X342745Y323160D01*
X342438D01*
X342093Y322965D01*
X341825Y322640D01*
X341633Y322250D01*
X341480Y321600D01*
X341442Y321015D01*
X341518Y320430D01*
X341633Y320040D01*
X341863Y319650D01*
X342132Y319390D01*
X342400Y319260D01*
X342668D01*
X342937Y319390D01*
X343167Y319585D01*
X343358Y319845D01*
G01X345300Y319260D02*
X344993Y319325D01*
X344725Y319585D01*
X344495Y319975D01*
X344342Y320430D01*
X344265Y320950D01*
Y321470D01*
X344342Y321990D01*
X344495Y322445D01*
X344725Y322835D01*
X344993Y323095D01*
X345300Y323160D01*
X345607Y323095D01*
X345875Y322835D01*
X346105Y322445D01*
X346258Y321990D01*
X346335Y321470D01*
Y320950D01*
X346258Y320430D01*
X346105Y319975D01*
X345875Y319585D01*
X345607Y319325D01*
X345300Y319260D01*
G01X347318D02*
Y323160D01*
X349082Y319260D01*
Y323160D01*
G01X350257Y319260D02*
Y323160D01*
X351023D01*
X351330Y322965D01*
X351560Y322705D01*
X351752Y322315D01*
X351905Y321860D01*
X351943Y321210D01*
X351905Y320560D01*
X351752Y320105D01*
X351560Y319715D01*
X351330Y319455D01*
X351023Y319260D01*
X350257D01*
G01X353157Y323160D02*
Y320365D01*
X353310Y319780D01*
X353617Y319390D01*
X354000Y319260D01*
X354383Y319390D01*
X354690Y319780D01*
X354843Y320365D01*
Y323160D01*
G01X357743Y322835D02*
X357513Y323030D01*
X357245Y323160D01*
X356938D01*
X356593Y322965D01*
X356325Y322640D01*
X356133Y322250D01*
X355980Y321600D01*
X355942Y321015D01*
X356018Y320430D01*
X356133Y320040D01*
X356363Y319650D01*
X356632Y319390D01*
X356900Y319260D01*
X357168D01*
X357437Y319390D01*
X357667Y319585D01*
X357858Y319845D01*
G01X359800Y323160D02*
Y319260D01*
G01X358918Y323160D02*
X360682D01*
G01X362700Y319260D02*
X362393Y319325D01*
X362125Y319585D01*
X361895Y319975D01*
X361742Y320430D01*
X361665Y320950D01*
Y321470D01*
X361742Y321990D01*
X361895Y322445D01*
X362125Y322835D01*
X362393Y323095D01*
X362700Y323160D01*
X363007Y323095D01*
X363275Y322835D01*
X363505Y322445D01*
X363658Y321990D01*
X363735Y321470D01*
Y320950D01*
X363658Y320430D01*
X363505Y319975D01*
X363275Y319585D01*
X363007Y319325D01*
X362700Y319260D01*
G01X364833D02*
Y323160D01*
X365792D01*
X366098Y322965D01*
X366290Y322705D01*
X366367Y322185D01*
X366290Y321665D01*
X366060Y321340D01*
X365792Y321145D01*
X364833D01*
G01X365792D02*
X366367Y319260D01*
G01X370902Y320560D02*
X371898D01*
G01X378043Y322835D02*
X377813Y323030D01*
X377545Y323160D01*
X377238D01*
X376893Y322965D01*
X376625Y322640D01*
X376433Y322250D01*
X376280Y321600D01*
X376242Y321015D01*
X376318Y320430D01*
X376433Y320040D01*
X376663Y319650D01*
X376932Y319390D01*
X377200Y319260D01*
X377468D01*
X377737Y319390D01*
X377967Y319585D01*
X378158Y319845D01*
G01X380100Y319260D02*
X379793Y319325D01*
X379525Y319585D01*
X379295Y319975D01*
X379142Y320430D01*
X379065Y320950D01*
Y321470D01*
X379142Y321990D01*
X379295Y322445D01*
X379525Y322835D01*
X379793Y323095D01*
X380100Y323160D01*
X380407Y323095D01*
X380675Y322835D01*
X380905Y322445D01*
X381058Y321990D01*
X381135Y321470D01*
Y320950D01*
X381058Y320430D01*
X380905Y319975D01*
X380675Y319585D01*
X380407Y319325D01*
X380100Y319260D01*
G01X382233D02*
Y323160D01*
X383153D01*
X383460Y322965D01*
X383690Y322510D01*
X383767Y321990D01*
X383690Y321470D01*
X383498Y321080D01*
X383153Y320885D01*
X382233D01*
G01X385133Y319260D02*
Y323160D01*
X386053D01*
X386360Y322965D01*
X386590Y322510D01*
X386667Y321990D01*
X386590Y321470D01*
X386398Y321080D01*
X386053Y320885D01*
X385133D01*
G01X389567Y319260D02*
X388033D01*
Y323160D01*
X389567D01*
G01X388953Y321275D02*
X388033D01*
G01X390933Y319260D02*
Y323160D01*
X391892D01*
X392198Y322965D01*
X392390Y322705D01*
X392467Y322185D01*
X392390Y321665D01*
X392160Y321340D01*
X391892Y321145D01*
X390933D01*
G01X391892D02*
X392467Y319260D01*
G01X397500Y323160D02*
X397193Y323030D01*
X396963Y322705D01*
X396810Y322315D01*
X396695Y321795D01*
X396657Y321210D01*
X396695Y320625D01*
X396810Y320105D01*
X396963Y319715D01*
X397193Y319390D01*
X397500Y319260D01*
X397807Y319390D01*
X398037Y319715D01*
X398190Y320105D01*
X398305Y320625D01*
X398343Y321210D01*
X398305Y321795D01*
X398190Y322315D01*
X398037Y322705D01*
X397807Y323030D01*
X397500Y323160D01*
G01X400400Y319130D02*
X400323Y319195D01*
Y319325D01*
X400400Y319390D01*
X400477Y319325D01*
Y319195D01*
X400400Y319130D01*
G01X403223Y319260D02*
X403300Y320105D01*
X403415Y320820D01*
X403568Y321470D01*
X403760Y322185D01*
X404067Y323160D01*
X402533D01*
G01X408103Y319260D02*
Y323160D01*
X409100Y319910D01*
X410097Y323160D01*
Y319260D01*
G01X411540Y323160D02*
X412460D01*
G01X412000D02*
Y319260D01*
G01X411540D02*
X412460D01*
G01X414133Y323160D02*
Y319260D01*
X415667D01*
G01X445222Y170350D02*
Y174250D01*
X446678D01*
G01X446142Y172365D02*
X445222D01*
G01X450890Y174250D02*
X451810D01*
G01X451350D02*
Y170350D01*
G01X450890D02*
X451810D01*
G01X456980Y172300D02*
X457747D01*
Y171130D01*
X457517Y170740D01*
X457248Y170480D01*
X456865Y170350D01*
X456482Y170480D01*
X456213Y170740D01*
X455983Y171130D01*
X455830Y171585D01*
X455753Y172105D01*
Y172560D01*
X455830Y172950D01*
X455983Y173405D01*
X456213Y173795D01*
X456443Y174055D01*
X456750Y174250D01*
X457018D01*
X457325Y174120D01*
X457555Y173860D01*
G01X461307Y174250D02*
Y171455D01*
X461460Y170870D01*
X461767Y170480D01*
X462150Y170350D01*
X462533Y170480D01*
X462840Y170870D01*
X462993Y171455D01*
Y174250D01*
G01X466783Y170350D02*
Y174250D01*
X467742D01*
X468048Y174055D01*
X468240Y173795D01*
X468317Y173275D01*
X468240Y172755D01*
X468010Y172430D01*
X467742Y172235D01*
X466783D01*
G01X467742D02*
X468317Y170350D01*
G01X473717D02*
X472183D01*
Y174250D01*
X473717D01*
G01X473103Y172365D02*
X472183D01*
G01X479457Y203150D02*
Y207050D01*
X480223D01*
X480530Y206855D01*
X480760Y206595D01*
X480952Y206205D01*
X481105Y205750D01*
X481143Y205100D01*
X481105Y204450D01*
X480952Y203995D01*
X480760Y203605D01*
X480530Y203345D01*
X480223Y203150D01*
X479457D01*
G01X484933D02*
Y207050D01*
X485892D01*
X486198Y206855D01*
X486390Y206595D01*
X486467Y206075D01*
X486390Y205555D01*
X486160Y205230D01*
X485892Y205035D01*
X484933D01*
G01X485892D02*
X486467Y203150D01*
G01X490640Y207050D02*
X491560D01*
G01X491100D02*
Y203150D01*
G01X490640D02*
X491560D01*
G01X495733Y207050D02*
Y203150D01*
X497267D01*
G01X501133Y207050D02*
Y203150D01*
X502667D01*
G01X513543Y206725D02*
X513313Y206920D01*
X513045Y207050D01*
X512738D01*
X512393Y206855D01*
X512125Y206530D01*
X511933Y206140D01*
X511780Y205490D01*
X511742Y204905D01*
X511818Y204320D01*
X511933Y203930D01*
X512163Y203540D01*
X512432Y203280D01*
X512700Y203150D01*
X512968D01*
X513237Y203280D01*
X513467Y203475D01*
X513658Y203735D01*
G01X517295Y203150D02*
Y207050D01*
G01X518905D02*
Y203150D01*
G01Y205100D02*
X517295D01*
G01X522542Y203150D02*
X523500Y207050D01*
X524458Y203150D01*
G01X524113Y204515D02*
X522887D01*
G01X528133Y203150D02*
Y207050D01*
X529092D01*
X529398Y206855D01*
X529590Y206595D01*
X529667Y206075D01*
X529590Y205555D01*
X529360Y205230D01*
X529092Y205035D01*
X528133D01*
G01X529092D02*
X529667Y203150D01*
G01X534300Y207050D02*
Y203150D01*
G01X533418Y207050D02*
X535182D01*
G01X539700Y203020D02*
X539623Y203085D01*
Y203215D01*
X539700Y203280D01*
X539777Y203215D01*
Y203085D01*
X539700Y203020D01*
G01Y204775D02*
X539623Y204840D01*
Y204970D01*
X539700Y205035D01*
X539777Y204970D01*
Y204840D01*
X539700Y204775D01*
G01X550500Y207050D02*
Y203150D01*
G01X549618Y207050D02*
X551382D01*
G01X555900Y203150D02*
X555593Y203215D01*
X555325Y203475D01*
X555095Y203865D01*
X554942Y204320D01*
X554865Y204840D01*
Y205360D01*
X554942Y205880D01*
X555095Y206335D01*
X555325Y206725D01*
X555593Y206985D01*
X555900Y207050D01*
X556207Y206985D01*
X556475Y206725D01*
X556705Y206335D01*
X556858Y205880D01*
X556935Y205360D01*
Y204840D01*
X556858Y204320D01*
X556705Y203865D01*
X556475Y203475D01*
X556207Y203215D01*
X555900Y203150D01*
G01X560533D02*
Y207050D01*
X561453D01*
X561760Y206855D01*
X561990Y206400D01*
X562067Y205880D01*
X561990Y205360D01*
X561798Y204970D01*
X561453Y204775D01*
X560533D01*
G01X572100Y207050D02*
Y203150D01*
G01X571563Y205750D02*
X572637D01*
G01X577500Y203150D02*
X577270Y203215D01*
X577040Y203475D01*
X576887Y203930D01*
X576810Y204450D01*
X576887Y204970D01*
X577040Y205425D01*
X577270Y205685D01*
X577500Y205750D01*
X577730Y205685D01*
X577960Y205425D01*
X578113Y204970D01*
X578152Y204450D01*
X578113Y203930D01*
X577960Y203475D01*
X577730Y203215D01*
X577500Y203150D01*
G01X588607Y205230D02*
X588760Y205425D01*
X588875Y205750D01*
X588952Y206205D01*
X588875Y206595D01*
X588722Y206855D01*
X588453Y207050D01*
X587418D01*
Y203150D01*
X588683D01*
X588952Y203410D01*
X589105Y203800D01*
X589182Y204255D01*
X589105Y204710D01*
X588875Y205100D01*
X588607Y205230D01*
X587418D01*
G01X593700Y203150D02*
X593393Y203215D01*
X593125Y203475D01*
X592895Y203865D01*
X592742Y204320D01*
X592665Y204840D01*
Y205360D01*
X592742Y205880D01*
X592895Y206335D01*
X593125Y206725D01*
X593393Y206985D01*
X593700Y207050D01*
X594007Y206985D01*
X594275Y206725D01*
X594505Y206335D01*
X594658Y205880D01*
X594735Y205360D01*
Y204840D01*
X594658Y204320D01*
X594505Y203865D01*
X594275Y203475D01*
X594007Y203215D01*
X593700Y203150D01*
G01X599100Y207050D02*
Y203150D01*
G01X598218Y207050D02*
X599982D01*
G01X604500D02*
Y203150D01*
G01X603618Y207050D02*
X605382D01*
G01X609900Y203150D02*
X609593Y203215D01*
X609325Y203475D01*
X609095Y203865D01*
X608942Y204320D01*
X608865Y204840D01*
Y205360D01*
X608942Y205880D01*
X609095Y206335D01*
X609325Y206725D01*
X609593Y206985D01*
X609900Y207050D01*
X610207Y206985D01*
X610475Y206725D01*
X610705Y206335D01*
X610858Y205880D01*
X610935Y205360D01*
Y204840D01*
X610858Y204320D01*
X610705Y203865D01*
X610475Y203475D01*
X610207Y203215D01*
X609900Y203150D01*
G01X614303D02*
Y207050D01*
X615300Y203800D01*
X616297Y207050D01*
Y203150D01*
G01X492842Y178150D02*
X493800Y182050D01*
X494758Y178150D01*
G01X494413Y179515D02*
X493187D01*
G01X498433Y182050D02*
Y178150D01*
X499967D01*
G01X503833Y182050D02*
Y178150D01*
X505367D01*
G01X514557Y182050D02*
Y179255D01*
X514710Y178670D01*
X515017Y178280D01*
X515400Y178150D01*
X515783Y178280D01*
X516090Y178670D01*
X516243Y179255D01*
Y182050D01*
G01X519918Y178150D02*
Y182050D01*
X521682Y178150D01*
Y182050D01*
G01X525740D02*
X526660D01*
G01X526200D02*
Y178150D01*
G01X525740D02*
X526660D01*
G01X531600Y182050D02*
Y178150D01*
G01X530718Y182050D02*
X532482D01*
G01X536195Y178670D02*
X536502Y178345D01*
X536847Y178150D01*
X537153D01*
X537460Y178345D01*
X537690Y178670D01*
X537805Y179125D01*
X537728Y179580D01*
X537537Y179970D01*
X537192Y180230D01*
X536732Y180360D01*
X536463Y180620D01*
X536348Y181075D01*
X536425Y181530D01*
X536617Y181855D01*
X536885Y182050D01*
X537153D01*
X537422Y181920D01*
X537652Y181595D01*
G01X546842Y178150D02*
X547800Y182050D01*
X548758Y178150D01*
G01X548413Y179515D02*
X547187D01*
G01X552433Y178150D02*
Y182050D01*
X553392D01*
X553698Y181855D01*
X553890Y181595D01*
X553967Y181075D01*
X553890Y180555D01*
X553660Y180230D01*
X553392Y180035D01*
X552433D01*
G01X553392D02*
X553967Y178150D01*
G01X559367D02*
X557833D01*
Y182050D01*
X559367D01*
G01X558753Y180165D02*
X557833D01*
G01X568940Y182050D02*
X569860D01*
G01X569400D02*
Y178150D01*
G01X568940D02*
X569860D01*
G01X573918D02*
Y182050D01*
X575682Y178150D01*
Y182050D01*
G01X584603Y178150D02*
Y182050D01*
X585600Y178800D01*
X586597Y182050D01*
Y178150D01*
G01X590540Y182050D02*
X591460D01*
G01X591000D02*
Y178150D01*
G01X590540D02*
X591460D01*
G01X595633Y182050D02*
Y178150D01*
X597167D01*
G01X600995Y178670D02*
X601302Y178345D01*
X601647Y178150D01*
X601953D01*
X602260Y178345D01*
X602490Y178670D01*
X602605Y179125D01*
X602528Y179580D01*
X602337Y179970D01*
X601992Y180230D01*
X601532Y180360D01*
X601263Y180620D01*
X601148Y181075D01*
X601225Y181530D01*
X601417Y181855D01*
X601685Y182050D01*
X601953D01*
X602222Y181920D01*
X602452Y181595D01*
G01X513045Y170870D02*
X513352Y170545D01*
X513697Y170350D01*
X514003D01*
X514310Y170545D01*
X514540Y170870D01*
X514655Y171325D01*
X514578Y171780D01*
X514387Y172170D01*
X514042Y172430D01*
X513582Y172560D01*
X513313Y172820D01*
X513198Y173275D01*
X513275Y173730D01*
X513467Y174055D01*
X513735Y174250D01*
X514003D01*
X514272Y174120D01*
X514502Y173795D01*
G01X518790Y174250D02*
X519710D01*
G01X519250D02*
Y170350D01*
G01X518790D02*
X519710D01*
G01X523922Y174250D02*
X525378D01*
X523922Y170350D01*
X525378D01*
G01X530817D02*
X529283D01*
Y174250D01*
X530817D01*
G01X530203Y172365D02*
X529283D01*
G01X513850Y162550D02*
Y166450D01*
X513390Y165670D01*
G01Y162550D02*
X514310D01*
G01X518522Y164175D02*
X518790Y164630D01*
X519020Y164890D01*
X519327Y165020D01*
X519595Y164890D01*
X519787Y164630D01*
X519940Y164240D01*
X519978Y163785D01*
X519940Y163395D01*
X519787Y163005D01*
X519557Y162680D01*
X519288Y162550D01*
X518982Y162680D01*
X518713Y163070D01*
X518560Y163655D01*
X518522Y164305D01*
X518598Y165150D01*
X518713Y165605D01*
X518905Y166060D01*
X519173Y166385D01*
X519442Y166450D01*
X519710Y166320D01*
X519902Y165995D01*
G01X524650Y162420D02*
X524573Y162485D01*
Y162615D01*
X524650Y162680D01*
X524727Y162615D01*
Y162485D01*
X524650Y162420D01*
G01X530050Y166450D02*
X529743Y166320D01*
X529513Y165995D01*
X529360Y165605D01*
X529245Y165085D01*
X529207Y164500D01*
X529245Y163915D01*
X529360Y163395D01*
X529513Y163005D01*
X529743Y162680D01*
X530050Y162550D01*
X530357Y162680D01*
X530587Y163005D01*
X530740Y163395D01*
X530855Y163915D01*
X530893Y164500D01*
X530855Y165085D01*
X530740Y165605D01*
X530587Y165995D01*
X530357Y166320D01*
X530050Y166450D01*
G01X578283Y170350D02*
Y174250D01*
X579203D01*
X579510Y174055D01*
X579740Y173600D01*
X579817Y173080D01*
X579740Y172560D01*
X579548Y172170D01*
X579203Y171975D01*
X578283D01*
G01X583683Y174250D02*
Y170350D01*
X585217D01*
G01X588892D02*
X589850Y174250D01*
X590808Y170350D01*
G01X590463Y171715D02*
X589237D01*
G01X595250Y174250D02*
Y170350D01*
G01X594368Y174250D02*
X596132D01*
G01X601417Y170350D02*
X599883D01*
Y174250D01*
X601417D01*
G01X600803Y172365D02*
X599883D01*
G01X605207Y170350D02*
Y174250D01*
X605973D01*
X606280Y174055D01*
X606510Y173795D01*
X606702Y173405D01*
X606855Y172950D01*
X606893Y172300D01*
X606855Y171650D01*
X606702Y171195D01*
X606510Y170805D01*
X606280Y170545D01*
X605973Y170350D01*
X605207D01*
G01X578283Y162550D02*
Y166450D01*
X579203D01*
X579510Y166255D01*
X579740Y165800D01*
X579817Y165280D01*
X579740Y164760D01*
X579548Y164370D01*
X579203Y164175D01*
X578283D01*
G01X583683Y166450D02*
Y162550D01*
X585217D01*
G01X588892D02*
X589850Y166450D01*
X590808Y162550D01*
G01X590463Y163915D02*
X589237D01*
G01X595250Y166450D02*
Y162550D01*
G01X594368Y166450D02*
X596132D01*
G01X601417Y162550D02*
X599883D01*
Y166450D01*
X601417D01*
G01X600803Y164565D02*
X599883D01*
G01X605207Y162550D02*
Y166450D01*
X605973D01*
X606280Y166255D01*
X606510Y165995D01*
X606702Y165605D01*
X606855Y165150D01*
X606893Y164500D01*
X606855Y163850D01*
X606702Y163395D01*
X606510Y163005D01*
X606280Y162745D01*
X605973Y162550D01*
X605207D01*
G01X633450Y170350D02*
X633143Y170415D01*
X632875Y170675D01*
X632645Y171065D01*
X632492Y171520D01*
X632415Y172040D01*
Y172560D01*
X632492Y173080D01*
X632645Y173535D01*
X632875Y173925D01*
X633143Y174185D01*
X633450Y174250D01*
X633757Y174185D01*
X634025Y173925D01*
X634255Y173535D01*
X634408Y173080D01*
X634485Y172560D01*
Y172040D01*
X634408Y171520D01*
X634255Y171065D01*
X634025Y170675D01*
X633757Y170415D01*
X633450Y170350D01*
G01X633757Y171390D02*
X634217Y170350D01*
G01X638850Y174250D02*
Y170350D01*
G01X637968Y174250D02*
X639732D01*
G01X644250Y170350D02*
Y172105D01*
X643483Y174250D01*
G01X645017D02*
X644250Y172105D01*
G01X636610Y162550D02*
Y166450D01*
X635192Y163655D01*
X637108D01*
G01X640822Y165800D02*
X641052Y166190D01*
X641320Y166385D01*
X641627Y166450D01*
X642010Y166320D01*
X642278Y165995D01*
X642355Y165605D01*
X642317Y165215D01*
X642163Y164890D01*
X641397Y164240D01*
X641052Y163785D01*
X640822Y163135D01*
X640745Y162550D01*
X642355D01*
M02*
