G04 ================== begin FILE IDENTIFICATION RECORD ==================*
G04 Layout Name:  E:/Proiect 1/allegro/AMPLFIC AUDIO PUTERE.brd*
G04 Film Name:    SPTOP*
G04 File Format:  Gerber RS274X*
G04 File Origin:  Cadence Allegro 16.6-2015-S059*
G04 Origin Date:  Tue Nov 13 20:28:54 2018*
G04 *
G04 Layer:  PIN/PASTEMASK_TOP*
G04 Layer:  PACKAGE GEOMETRY/PASTEMASK_TOP*
G04 *
G04 Offset:    (0.00 0.00)*
G04 Mirror:    No*
G04 Mode:      Positive*
G04 Rotation:  0*
G04 FullContactRelief:  No*
G04 UndefLineWidth:     10.00*
G04 ================== end FILE IDENTIFICATION RECORD ====================*
%FSLAX25Y25*MOIN*%
%IR0*IPPOS*OFA0.00000B0.00000*MIA0B0*SFA1.00000B1.00000*%
%ADD20R,.1X.06*%
%ADD11R,.06X.1*%
%ADD13C,.04*%
%ADD23R,.11811X.06299*%
%ADD18R,.06874X.06874*%
%ADD21R,.017X.02*%
%ADD14R,.02X.017*%
%ADD19R,.04X.026*%
%ADD16R,.04118X.06661*%
%ADD22R,.24409X.22835*%
%ADD17R,.04528X.04724*%
%ADD10R,.04724X.04528*%
%ADD15R,.04528X.06496*%
%ADD12R,.06496X.04528*%
%LPD*%
G75*
G54D10*
X11457Y31000D03*
X18543D03*
X101543Y102000D03*
X94457D03*
G54D11*
X28500Y16000D03*
X41500D03*
X130500Y146000D03*
X117500D03*
G54D20*
X59000Y24500D03*
Y11500D03*
G54D12*
X34000Y29063D03*
Y36937D03*
X16000Y93063D03*
Y100937D03*
X18000Y147937D03*
Y140063D03*
X65000Y76937D03*
Y69063D03*
X59000Y149937D03*
Y142063D03*
X69000Y133937D03*
Y126063D03*
X94000Y62063D03*
X77000Y40937D03*
Y33063D03*
X94000Y86063D03*
Y69937D03*
Y93937D03*
X108000Y62063D03*
Y86063D03*
Y69937D03*
Y93937D03*
X150000Y78063D03*
Y85937D03*
G54D21*
X56800Y73500D03*
X49300D03*
X53000Y80500D03*
X99200Y47500D03*
X98800Y115500D03*
X91300D03*
X95000Y122500D03*
X87800Y140500D03*
X80300D03*
X84000Y147500D03*
X106700Y47500D03*
X103000Y40500D03*
G54D22*
X140307Y20024D03*
X141307Y123024D03*
G54D13*
X20000Y20000D03*
X140000Y140000D03*
G54D14*
X35500Y51000D03*
X24500Y53800D03*
Y46300D03*
X17500Y50000D03*
X38500Y139000D03*
X42500Y54800D03*
Y47300D03*
X48500Y103800D03*
Y96300D03*
X41500Y100000D03*
X45500Y142800D03*
Y135300D03*
G54D23*
X112000Y11008D03*
Y29000D03*
X113000Y114008D03*
Y132000D03*
G54D15*
X42063Y37000D03*
X49937D03*
X60937Y49000D03*
X53063D03*
X46063Y64000D03*
X53937D03*
X54937Y125000D03*
X47063D03*
X75063Y54000D03*
X82937D03*
Y65000D03*
X75063D03*
X89937Y131000D03*
X82063D03*
X128063Y55000D03*
Y42000D03*
Y68000D03*
X132063Y82000D03*
X126063Y92000D03*
X117937Y105000D03*
X110063D03*
X125063D03*
X135937Y55000D03*
Y42000D03*
Y68000D03*
X139937Y82000D03*
X133937Y92000D03*
X132937Y105000D03*
G54D16*
X13945Y63000D03*
X23000D03*
X69055Y114000D03*
X60000D03*
G54D17*
X39000Y80543D03*
Y73457D03*
X78000Y89543D03*
Y82457D03*
X86000Y110543D03*
Y103457D03*
G54D18*
X18472Y78748D03*
X64528Y98252D03*
G54D19*
X20900Y116100D03*
X29000Y112000D03*
Y120200D03*
M02*
